<svg id="visual" viewBox="0 0 900 600" width="900" height="600" xmlns="http://www.w3.org/2000/svg" xmlns:xlink="http://www.w3.org/1999/xlink" version="1.1"><path d="M0 206L18.8 211.8C37.7 217.7 75.3 229.3 112.8 236.5C150.3 243.7 187.7 246.3 225.2 238.5C262.7 230.7 300.3 212.3 337.8 196.2C375.3 180 412.7 166 450.2 176.2C487.7 186.3 525.3 220.7 562.8 217C600.3 213.3 637.7 171.7 675.2 165.5C712.7 159.3 750.3 188.7 787.8 198C825.3 207.3 862.7 196.7 881.3 191.3L900 186L900 0L881.3 0C862.7 0 825.3 0 787.8 0C750.3 0 712.7 0 675.2 0C637.7 0 600.3 0 562.8 0C525.3 0 487.7 0 450.2 0C412.7 0 375.3 0 337.8 0C300.3 0 262.7 0 225.2 0C187.7 0 150.3 0 112.8 0C75.3 0 37.7 0 18.8 0L0 0Z" fill="#090909" stroke-linecap="round" stroke-linejoin="miter"></path></svg>